{"title":"Geordie.Shore.S05E03.PDTV.XviD-W33D","uid":8223645,"size":402219838,"categoryP":"video","categoryS":"tv_shows","magnet":"?xt=urn:btih:3b3500f9597709bc8718d06e71143284258c7598&amp;dn=Geordie.Shore.S05E03.PDTV.XviD-W33D&amp;tr=udp%3A%2F%2Ftracker.openbittorrent.com%3A80&amp;tr=udp%3A%2F%2Fopen.demonii.com%3A1337&amp;tr=udp%3A%2F%2Ftracker.coppersurfer.tk%3A6969&amp;tr=udp%3A%2F%2Fexodus.desync.com%3A6969","seeders":3,"leechers":0,"uploader":"W33DandSHANE","files":1,"time":1362533317,"description":"Season 5 Episode 3 of\nThere is tension in the Toon as James takes girlfriend Kate on a night out with the gang, leaving Holly unimpressed\n\n\nGeneral\nComplete name :Geordie.Shore.S05E03.PDTV.XviD-W33D.avi\nFormat : AVI\nFormat/Info : Audio Video Interleave\nFormat profile : OpenDML\nFormat settings : rec\nFile size : 384 MiB\nDuration : 43mn 58s\nOverall bit rate mode : Variable\nOverall bit rate : 1 219 Kbps\nWriting application : AVI-Mux GUI 1.17.8.3, Feb 16 201019:42:50\n\nVideo\nID : 0\nFormat : MPEG-4 Visual\nFormat profile : Advanced Simple@L5\nFormat settings, BVOP : 2\nFormat settings, QPel : No\nFormat settings, GMC : No warppoints\nFormat settings, Matrix : Default (H.263)\nCodec ID : XVID\nCodec ID/Hint : XviD\nDuration : 43mn 58s\nBit rate : 1 088 Kbps\nWidth : 704 pixels\nHeight : 384 pixels\nDisplay aspect ratio : 1.85:1\nFrame rate : 25.000 fps\nColor space : YUV\nChroma subsampling : 4:2:0\nBit depth : 8 bits\nScan type : Progressive\nCompression mode : Lossy\nBits/(Pixel*Frame) : 0.161\nStream size : 342 MiB (89%)\nWriting library : XviD 1.1.2 (UTC 2006-11-01)\n\nAudio\nID : 1\nFormat : MPEG Audio\nFormat version : Version 1\nFormat profile : Layer 3\nMode : Joint stereo\nMode extension : MS Stereo\nCodec ID : 55\nCodec ID/Hint : MP3\nDuration : 43mn 58s\nBit rate mode : Variable\nBit rate : 128 Kbps\nChannel(s) : 2 channels\nSampling rate : 48.0 KHz\nCompression mode : Lossy\nStream size : 38.5 MiB (10%)\nAlignment : Aligned on interleaves\nInterleave, duration : 24 ms (0.60 video frame)\nInterleave, preload duration : 216 ms\nWriting library : LAME3.90.\nEncoding settings : -m j -V 4 -q 2 -lowpass 17.6 --abr 128","torrent":{"xt":"urn:btih:3b3500f9597709bc8718d06e71143284258c7598","amp;dn":"Geordie.Shore.S05E03.PDTV.XviD-W33D","amp;tr":["udp%3A%2F%2Ftracker.openbittorrent.com%3A80","udp%3A%2F%2Fopen.demonii.com%3A1337","udp%3A%2F%2Ftracker.coppersurfer.tk%3A6969","udp%3A%2F%2Fexodus.desync.com%3A6969"],"infoHash":"3b3500f9597709bc8718d06e71143284258c7598","infoHashBuffer":{"type":"Buffer","data":[59,53,0,249,89,119,9,188,135,24,208,110,113,20,50,132,37,140,117,152]},"announce":[],"urlList":[]}}